<svg width="48" height="48" viewBox="0 0 48 48" fill="none" xmlns="http://www.w3.org/2000/svg">
<rect width="48" height="48" rx="24" fill="#F2F2F2"/>
<path d="M29.782 21.9807L29.7821 21.9807L29.7853 21.9781C30.3171 21.546 30.4018 20.7559 29.9734 20.2213C29.5464 19.6655 28.7468 19.5912 28.2165 20.0205L25.088 22.5193L25.087 22.5201C24.8117 22.7411 24.4159 22.8675 23.995 22.8675C23.5741 22.8675 23.1783 22.7411 22.903 22.5201L22.902 22.5193L19.7734 20.0204C19.2284 19.5793 18.4467 19.6919 18.0219 20.2147L18.0219 20.2146L18.016 20.2222C17.5998 20.7549 17.6813 21.5447 18.2147 21.9781L18.2147 21.9781L18.218 21.9807L21.3461 24.4792C22.0977 25.0912 23.0633 25.38 24 25.38C24.9396 25.38 25.8935 25.0896 26.6526 24.4803C26.6527 24.4801 26.6529 24.48 26.6531 24.4799L29.782 21.9807ZM19 16H29C30.4234 16 31.5331 16.3559 32.2848 17.0539C33.0297 17.7457 33.5 18.8453 33.5 20.5V27.5C33.5 29.1547 33.0297 30.2543 32.2848 30.9461C31.5331 31.6441 30.4234 32 29 32H19C17.5766 32 16.4669 31.6441 15.7152 30.9461C14.9703 30.2543 14.5 29.1547 14.5 27.5V20.5C14.5 18.8453 14.9703 17.7457 15.7152 17.0539C16.4669 16.3559 17.5766 16 19 16Z" fill="#111827" stroke="#111827"/>
<circle cx="32" cy="18" r="4.75" fill="#E2211C" stroke="white" stroke-width="1.5"/>
</svg>
