<svg width="48" height="48" viewBox="0 0 48 48" fill="none" xmlns="http://www.w3.org/2000/svg">
<rect width="48" height="48" rx="24" fill="#F2F2F2"/>
<path d="M30.9117 26.748L30.913 26.7502C31.2233 27.2594 31.2776 27.8584 31.0721 28.4037C30.8638 28.9566 30.4356 29.3737 29.8839 29.555L29.8839 29.555L29.8812 29.5559C27.9942 30.1881 26.008 30.5 24.02 30.5C22.032 30.5 20.0466 30.1881 18.161 29.5466L18.16 29.5463C17.543 29.3378 17.1019 28.9172 16.9207 28.4114L16.9207 28.4114L16.9193 28.4075C16.7273 27.8851 16.7876 27.3026 17.1186 26.7475C17.1189 26.7471 17.1191 26.7467 17.1193 26.7463L18.1278 25.0788L18.1279 25.0788L18.1319 25.0719C18.2676 24.8394 18.3815 24.5281 18.4612 24.2349C18.5408 23.9422 18.6 23.6169 18.6 23.35V20.82C18.6 18.699 19.8341 16.8574 21.6227 15.9677L21.761 15.8989L21.8364 15.764C22.2693 14.9898 23.0837 14.5 23.99 14.5C24.9106 14.5 25.7039 14.9737 26.1347 15.736L26.2123 15.8733L26.3546 15.9412C28.1782 16.8118 29.44 18.6708 29.44 20.82V23.35C29.44 23.6169 29.4992 23.9421 29.5786 24.2356C29.6584 24.5303 29.7717 24.8417 29.9052 25.0768L29.905 25.0769L29.9117 25.088L30.9117 26.748Z" fill="#111827" stroke="#111827"/>
<path d="M22.0956 32.6143C22.146 32.6193 22.1966 32.6239 22.2474 32.6282C22.8289 32.6792 23.4233 32.71 24.02 32.71C24.6073 32.71 25.1924 32.6791 25.7645 32.628L25.7645 32.628L25.7674 32.6277C25.8104 32.6237 25.858 32.6197 25.9086 32.6156C25.4474 33.1572 24.7621 33.5 24 33.5C23.3411 33.5 22.6924 33.2319 22.2398 32.7628L22.2311 32.7538L22.222 32.7452C22.1782 32.7042 22.136 32.6604 22.0956 32.6143Z" fill="#111827" stroke="#111827"/>
<circle cx="31" cy="18" r="4.75" fill="#E2211C" stroke="white" stroke-width="1.5"/>
</svg>
